<svg xmlns="http://www.w3.org/2000/svg" width="121" height="24" viewBox="0 0 121 24" fill="none">
<path d="M18.8252 16.126L23.0112 24H17.093C14.7715 19.612 18.8252 16.126 18.8252 16.126ZM31.6239 0C28.5686 0 25.0682 0.426612 19.2221 6.19198C18.5726 6.83799 17.1652 8.22753 15.5052 9.86084L12.8108 4.79025H6.89255L11.6199 13.6882C8.68485 16.5891 6.06255 19.1732 6.06255 19.1732C2.9591 22.2326 1.67201 23.2321 0.0721733 23.7806C0.0481155 23.8537 0.0240578 23.9147 0 23.9878H1.64796C3.45229 23.9878 8.56456 23.9878 14.5068 17.9665C19.2462 13.164 23.0954 9.26359 27.51 4.80244C30.5534 1.71864 32.8148 0.597257 33.9214 0.207212L33.9936 0H31.6239Z" fill="#36B647"/>
<path d="M25.3691 23.9877L31.3956 7.19141H44.868L43.3643 11.3844H35.0764L33.8495 14.7851H40.9706L39.5392 18.7709H32.4181L30.5536 23.9756H25.3691V23.9877Z" fill="white"/>
<path d="M41.2109 23.9877L47.2374 7.19141H52.4098L46.3834 23.9877H41.2109Z" fill="white"/>
<path d="M53.2754 11.3966L54.779 7.20361H69.6226L68.119 11.3966H63.4879L58.965 23.9878H53.7806L58.3035 11.3966H53.2754Z" fill="white"/>
</svg>
